<svg width="128" height="128" viewBox="0 0 128 128" fill="none" xmlns="http://www.w3.org/2000/svg">
  <!-- 蓝色小鬼 -->
  <g transform="translate(16, 16)">
    <!-- 身体 -->
    <path d="M 48 10 C 25 10 10 25 10 48 L 10 80 L 18 72 L 26 80 L 34 72 L 42 80 L 50 72 L 58 80 L 66 72 L 74 80 L 82 72 L 86 80 L 86 48 C 86 25 71 10 48 10 Z" fill="#4ECDC4" stroke="#00B894" stroke-width="2"/>
    
    <!-- 左眼 -->
    <ellipse cx="32" cy="40" rx="8" ry="12" fill="white"/>
    <circle cx="32" cy="42" r="5" fill="#2C3E50"/>
    
    <!-- 右眼 -->
    <ellipse cx="64" cy="40" rx="8" ry="12" fill="white"/>
    <circle cx="64" cy="42" r="5" fill="#2C3E50"/>
    
    <!-- 嘴巴 -->
    <path d="M 30 60 Q 48 70 66 60" stroke="#00B894" stroke-width="3" fill="none" stroke-linecap="round"/>
  </g>
</svg>
